<?xml version="1.0"?>
<svg xmlns="http://www.w3.org/2000/svg" height="512px" viewBox="-14 0 512 512.00039" width="512px" class=""><g><path d="m329.316406 147.011719c-12.214844-40.449219-47.058594-69.304688-48.757812-70.691407l-9.507813-7.765624-9.503906 7.765624c-1.707031 1.390626-36.632813 30.324219-48.796875 70.859376-9.019531-2.632813-18.550781-4.054688-28.410156-4.054688h-32.3125v32.3125c0 55.9375 45.503906 101.441406 101.4375 101.441406h34.5625c55.933594 0 101.4375-45.507812 101.4375-101.441406v-32.3125h-32.3125c-9.648438 0-18.988282 1.355469-27.835938 3.886719zm-58.261718-38.34375c10.128906 10.5625 25.390624 29.355469 30.585937 51.039062-12.480469 8.191407-23.050781 19.054688-30.894531 31.777344-7.730469-12.539063-18.109375-23.273437-30.355469-31.421875 5.113281-21.839844 20.484375-40.777344 30.664063-51.394531zm-15.339844 138.144531h-2.25c-39.355469 0-71.375-32.015625-71.375-71.375v-2.25h2.25c9.335937 0 18.246094 1.820312 26.425781 5.09375l6.210937 3.226562c20.136719 10.457032 33.839844 29.257813 37.65625 50.757813.007813.050781.019532.101563.027344.152344.125.714843.238282 1.4375.34375 2.160156.066406.464844.121094.933594.175782 1.40625.085937.699219.164062 1.402344.230468 2.109375.066406.75.125 1.503906.171875 2.265625.019531.335937.039063.671875.050781 1.011719.046876 1.058594.082032 2.121094.082032 3.195312zm103.6875-71.375c0 39.359375-32.019532 71.375-71.375 71.375h-2.25v-2.25c0-1.074219.035156-2.148438.082031-3.214844.015625-.324218.03125-.648437.050781-.972656.046875-.800781.109375-1.597656.183594-2.390625.042969-.449219.085938-.898437.132812-1.34375.085938-.746094.179688-1.484375.285157-2.222656.085937-.609375.1875-1.21875.289062-1.824219.042969-.261719.09375-.519531.140625-.78125 3.949219-21.527344 17.785156-40.246094 38.0625-50.574219l6.085938-3.101562c8.078125-3.179688 16.867187-4.949219 26.0625-4.949219h2.25zm0 0" data-original="#000000" class="active-path" data-old_color="#fcf9ED" fill="#fcf9ED"/><path d="m459.9375 103.117188c-35.15625-63.5625-113.578125-104.992188-195.167969-103.0507818-45.078125 1.0624998-82.789062 12.9296878-112.074219 35.2773438-54.992187 41.960938-82.125 90.492188-87.574218 156.921875l-60.496094 89.113281-.195312.289063c-5.503907 8.523437-5.90625 19.351562-1.054688 28.261719 4.851562 8.914062 14.171875 14.449218 24.320312 14.449218h25.558594v76.082032c0 29.949218 24.367188 54.316406 54.316406 54.316406h83.410157v57.222656h187.46875v-108.632812c3.355469-2.140626 7.613281-4.730469 9.933593-6.144532 5.0625-3.082031 6.578126-4.011718 7.828126-4.992187 39.867187-31.296875 69.84375-79.902344 82.25-133.355469 12.890624-55.546875 6.3125-110.863281-18.523438-155.757812zm-81.984375 265.222656c-.851563.554687-3.246094 2.015625-5.199219 3.203125-3.550781 2.160156-7.972656 4.851562-11.566406 7.183593-6.292969 4.082032-12.800781 8.304688-12.800781 17.191407v86.019531h-127.339844v-57.222656h-113.476563c-13.375 0-24.253906-10.878906-24.253906-24.253906v-106.148438h-51.140625l62.355469-91.84375.273438-4.058594c4.074218-59.941406 26.839843-101.5625 76.125-139.164062 24.136718-18.417969 55.945312-28.214844 94.550781-29.125 58.851562-1.371094 133.632812 25.144531 168.152343 87.546875 43.210938 78.113281 17.703126 192.808593-55.679687 250.671875zm0 0" data-original="#000000" class="active-path" data-old_color="#fcf9ED" fill="#fcf9ED"/></g> </svg>
